<svg xmlns="http://www.w3.org/2000/svg" viewBox="0 0 579.89 179.31"><defs><style>.cls-1{fill:#3f84b3;}</style></defs><g id="Layer_2" data-name="Layer 2"><g id="Layer_1-2" data-name="Layer 1"><path class="cls-1" d="M288.72,89.74c0,19.5-10.65,37.08-32.83,37.08-20.46,0-32.15-16.18-32.15-36.62,0-20.25,11.58-36.62,32.91-36.62C276.42,53.58,288.72,68.8,288.72,89.74Zm-57.29.15c0,15.93,8.53,30.51,24.81,30.51C273.81,120.4,281,106,281,89.86S272.85,60,256.37,60C239,60,231.43,74.22,231.43,89.89Zm40.49,28.44,21.25,15.18-4.61,5.26L264.94,122Z"/><path class="cls-1" d="M319.88,54.6v43c0,18,10,22.71,19.66,22.71,11.35,0,19.6-5,19.6-22.71v-43h7.36V97.21c0,22.65-12.24,29.44-27.16,29.44-14.41,0-26.91-7.42-26.91-28.63V54.6Z"/><path class="cls-1" d="M399.48,102.65l-8.43,23.15h-7.31l25.79-71.2h8.82l26.9,71.2h-7.84l-8.64-23.15Zm27.19-6.44c-7.42-20-11.33-30.12-12.81-35.19h-.1c-1.74,5.68-6.13,18-12.11,35.19Z"/><path class="cls-1" d="M465.17,106.36c2,9,8.14,14.2,19.21,14.2,12.16,0,16.88-5.92,16.88-13.2,0-7.63-3.54-12.17-18.57-15.85-15.84-3.91-22-9.18-22-19.34,0-9.9,7.26-18.59,22.81-18.59,16.25,0,23,9.67,24,18.63H500c-1.47-7-6-12.41-16.82-12.41-9.55,0-14.82,4.39-14.82,11.81s4.38,10.17,17.21,13.32c20.16,5,23.4,12.95,23.4,21.76,0,10.93-8,20-24.93,20-17.85,0-24.9-10.11-26.29-20.29Z"/><path class="cls-1" d="M538.71,93.4v32.4h-7.29V54.6H558c14.3,0,21.9,7.71,21.9,18.86,0,9.15-5.36,14.92-12.79,16.71,6.64,1.66,11.6,6.24,11.6,18.46v2.88c0,4.95-.33,11.44.93,14.29h-7.21c-1.31-3.06-1.1-8.69-1.1-15v-1.69c0-11-3.19-15.66-16.44-15.66Zm0-6.38h16.42c11.78,0,17.12-4.41,17.12-13.16,0-8.22-5.35-12.89-15.8-12.89H538.71Z"/><path class="cls-1" d="M178.79,84.74a51.25,51.25,0,0,0-4.2-13.59c-1.68-6.33-7.81-10.45-15.11-15.34A104.38,104.38,0,0,1,143.2,43.17a114.26,114.26,0,0,1-13.59-16.8c-4.88-7-9.49-13.57-18.17-20.14C104.34.85,95.11-1.1,84.75.59A51.48,51.48,0,0,0,71.42,4.67c-6.49,1.57-10.65,7.77-15.61,15.17A104.38,104.38,0,0,1,43.17,36.12a114.26,114.26,0,0,1-16.8,13.59c-7,4.88-13.57,9.5-20.14,18.18C.85,75-1.1,84.21.59,94.57a50.67,50.67,0,0,0,4.2,13.59c1.68,6.34,7.8,10.45,15.11,15.34,5.1,3.42,10.88,7.28,16.28,12.65A112.46,112.46,0,0,1,49.76,153c4.89,7,9.5,13.56,18.18,20.14a31.89,31.89,0,0,0,19.62,6.22,43.51,43.51,0,0,0,7.07-.59A51.67,51.67,0,0,0,108,174.64c6.48-1.58,10.63-7.77,15.58-15.17,3.42-5.1,7.29-10.88,12.65-16.28A113.61,113.61,0,0,1,153,129.61c7-4.89,13.56-9.5,20.14-18.18C178.53,104.33,180.48,95.1,178.79,84.74Zm-88.88,83c-5.92-4-12.43-11.18-18-23.74-.41-.93-.82-1.91-1.24-3-3.44-8.42-8.16-19.95-29.59-31.44C16.92,99.44,12.3,91.33,11.61,89.81c4.05-5.91,11.18-12.4,23.71-18,.92-.41,1.91-.81,3-1.24,8.42-3.44,20-8.15,31.45-29.58,9.85-23.4,17.78-28.45,19.63-29.36,6,4,12.56,11.15,18.16,23.69.41.92.82,1.91,1.24,3,3.44,8.42,8.16,20,29.59,31.45C162.46,79.87,167.08,88,167.76,89.51c-4,5.91-11.17,12.4-23.7,18-.92.42-1.91.82-2.95,1.24-8.43,3.45-20,8.16-31.45,29.59C99.59,162.24,91.54,167,89.91,167.74Zm78.8-80.59c-2.28-3.43-9.18-10.68-29.51-19.23-20.71-11.11-25.27-22.26-28.6-30.4-.43-1.07-.84-2.07-1.26-3-4.43-9.91-9.5-16.56-14.46-21a55.67,55.67,0,0,1,13.3,15c1.1,1.75,2.12,3.6,3.2,5.57,4.58,8.33,10.28,18.69,27.82,29.41,19.5,10.28,28,16.48,29.42,21.41A4.69,4.69,0,0,1,168.71,87.15ZM87.15,10.61c-3.43,2.28-10.68,9.18-19.23,29.52C56.8,60.84,45.66,65.39,37.51,68.72c-1.06.43-2.06.84-3,1.27-9.83,4.38-16.45,9.4-20.92,14.32A55.88,55.88,0,0,1,28.47,71.14C30.22,70,32.07,69,34,67.94c8.33-4.58,18.69-10.28,29.41-27.82,10.28-19.5,16.48-28,21.41-29.41A4.82,4.82,0,0,1,87.15,10.61ZM10.66,92.17C13,95.6,19.85,102.84,40.18,111.4c20.71,11.11,25.27,22.26,28.6,30.4.43,1.06.84,2.07,1.26,3,4.38,9.82,9.39,16.44,14.31,20.91A55.77,55.77,0,0,1,71.2,150.84c-1.11-1.75-2.12-3.6-3.2-5.56-4.58-8.33-10.28-18.7-27.82-29.42-19.51-10.27-28-16.47-29.42-21.4A4.83,4.83,0,0,1,10.66,92.17Zm81.57,76.54c3.43-2.29,10.68-9.19,19.23-29.52,11.11-20.71,22.26-25.27,30.4-28.59,1.07-.44,2.07-.85,3-1.27,9.92-4.43,16.57-9.5,21-14.46a55.73,55.73,0,0,1-15,13.3c-1.74,1.11-3.6,2.13-5.56,3.2-8.33,4.58-18.7,10.28-29.41,27.82-10.28,19.51-16.48,28-21.41,29.42A4.82,4.82,0,0,1,92.23,168.71Zm77.9-85.52c-2.36-5.33-11-11.52-29.94-21.48-17-10.4-22.36-20.09-27.06-28.64-1.09-2-2.12-3.86-3.26-5.66C102.46,15.67,94.43,9.82,87.62,7c6.13,1.67,13.9,5.62,21.23,14.64a111.56,111.56,0,0,1,6.55,9.24c5.18,7.84,11,16.73,24.66,26.33,3.56,2.33,6.93,4.44,9.9,6.31C164,72.28,170.67,76.89,170.13,83.19Zm-86.94-74c-5.33,2.36-11.52,11-21.48,29.94-10.41,17-20.09,22.36-28.64,27.06-2,1.09-3.86,2.12-5.66,3.26C15.68,76.85,9.83,84.89,7,91.69,8.63,85.57,12.58,77.8,21.6,70.47a111.56,111.56,0,0,1,9.24-6.55c7.84-5.18,16.73-11,26.33-24.66,2.33-3.56,4.44-6.93,6.31-9.9C72.28,15.33,76.9,8.65,83.19,9.19ZM9.25,96.13c2.36,5.32,11,11.52,29.94,21.47,17,10.41,22.36,20.1,27.06,28.64,1.09,2,2.12,3.87,3.26,5.67,7.39,11.71,15.41,17.57,22.21,20.44-6.11-1.68-13.87-5.63-21.19-14.63A111.67,111.67,0,0,1,64,148.48c-5.17-7.85-11-16.74-24.65-26.34-3.56-2.32-6.93-4.44-9.91-6.3C15.39,107,8.71,102.42,9.25,96.13Zm86.94,74c5.33-2.35,11.52-11,21.47-29.94,10.41-17,20.1-22.36,28.64-27.05,2-1.1,3.87-2.13,5.67-3.27,11.73-7.4,17.58-15.43,20.45-22.24-1.67,6.12-5.62,13.89-14.64,21.23-3,2.42-6,4.42-9.24,6.55-7.84,5.17-16.73,11-26.34,24.66-2.32,3.56-4.44,6.93-6.3,9.9C107.09,164,102.48,170.66,96.19,170.12Zm75.4-90.87c-2.07-5.85-9.73-10.67-20.56-17.47-3-1.86-6.33-4-9.85-6.26-13.27-9.36-18.78-17.71-24.11-25.78a109.53,109.53,0,0,0-6.67-9.4C102.1,10.13,93.16,6,85.92,4.55a34.84,34.84,0,0,1,23.61,10.16A101.53,101.53,0,0,1,121.25,29c5,6.86,10.07,14,19.68,21.91,5.33,4.29,10.43,7.65,14.94,10.62C165.71,68,172,72.15,171.59,79.25ZM79.24,7.74C73.4,9.8,68.58,17.46,61.79,28.29c-1.87,3-4,6.33-6.27,9.85C46.15,51.42,37.81,56.92,29.73,62.25a111,111,0,0,0-9.39,6.67C10.13,77.22,6,86.16,4.55,93.4A34.84,34.84,0,0,1,14.71,69.79,101.53,101.53,0,0,1,29,58.07c6.86-5,14-10.07,21.91-19.67C55.18,33.07,58.54,28,61.51,23.45,68,13.61,72.15,7.32,79.24,7.74ZM7.79,100.07c2.07,5.85,9.73,10.66,20.56,17.46,3,1.86,6.33,4,9.84,6.26C51.47,133.16,57,141.51,62.3,149.58c2.16,3.26,4.19,6.34,6.67,9.4,8.3,10.2,17.24,14.31,24.48,15.78a34.8,34.8,0,0,1-23.6-10.16,101.53,101.53,0,0,1-11.72-14.27c-5-6.86-10.07-14-19.68-21.9-5.33-4.29-10.43-7.66-14.94-10.63C13.67,111.32,7.38,107.17,7.79,100.07Zm92.3,71.51c5.87-2.05,10.69-9.7,17.5-20.56,1.86-3,4-6.33,6.27-9.84,9.36-13.28,17.71-18.79,25.78-24.11,3.26-2.16,6.34-4.19,9.4-6.67,10.23-8.32,14.34-17.3,15.8-24.55a34.86,34.86,0,0,1-10.17,23.68,102.82,102.82,0,0,1-14.27,11.72c-6.86,5-14,10.06-21.91,19.67-4.29,5.33-7.65,10.43-10.62,14.94C111.37,165.72,107.22,172,100.09,171.58ZM110.23,7.82c8.43,6.39,13,12.85,17.74,19.69a116.15,116.15,0,0,0,13.82,17.08c5.54,5.5,11.4,9.42,16.58,12.89,7.45,5,13.15,8.81,14.41,14.78a17.13,17.13,0,0,1,.11,2.4c-2-5.63-8.19-9.72-15.92-14.82-4.47-2.94-9.54-6.28-14.78-10.5-9.4-7.78-14.44-14.77-19.31-21.53a104.05,104.05,0,0,0-11.95-14.53A36.74,36.74,0,0,0,85.37,2.55C92.84,1.38,102.23,1.76,110.23,7.82ZM7.82,69.09c6.39-8.43,12.85-13,19.69-17.74A115.5,115.5,0,0,0,44.59,37.53C50.09,32,54,26.13,57.48,21,62.33,13.7,66.09,8.1,71.8,6.65v0a14.62,14.62,0,0,1,2.6-.14c-5.49,2.08-9.54,8.21-14.56,15.82-2.94,4.47-6.28,9.54-10.5,14.78-7.78,9.4-14.77,14.44-21.53,19.32A103.25,103.25,0,0,0,13.28,68.39,36.75,36.75,0,0,0,2.55,94C1.38,86.49,1.76,77.09,7.82,69.09Zm61.33,102.4c-8.43-6.38-13-12.85-17.75-19.69a114.83,114.83,0,0,0-13.81-17.07A105.74,105.74,0,0,0,21,121.84c-7.45-5-13.16-8.81-14.41-14.78a17.22,17.22,0,0,1-.11-2.4c2,5.62,8.18,9.71,15.92,14.81,4.47,3,9.53,6.28,14.78,10.51,9.39,7.77,14.44,14.76,19.31,21.52a103.48,103.48,0,0,0,12,14.53A36.76,36.76,0,0,0,94,176.77C86.54,177.93,77.15,177.55,69.15,171.49Zm102.4-61.27c-6.38,8.43-12.84,13-19.69,17.75a115.34,115.34,0,0,0-17.07,13.81c-5.5,5.54-9.42,11.4-12.89,16.58-4.85,7.26-8.61,12.85-14.31,14.3v0a14.11,14.11,0,0,1-2.69.19c5.54-2.05,9.6-8.21,14.65-15.87,2.94-4.47,6.28-9.53,10.5-14.78,7.78-9.39,14.77-14.44,21.53-19.31a103.92,103.92,0,0,0,14.53-12A36.76,36.76,0,0,0,176.83,85.4C178,92.87,177.6,102.25,171.55,110.22Z"/></g></g></svg>